<svg xmlns="http://www.w3.org/2000/svg" viewBox="0 0 500 500"><g id="freepik--background-simple--inject-6"><path d="M69.48,156.74c11.88-30.64,42.81-52.91,75.63-54.47s65.73,17.69,80.45,47.07c6.73,13.42,9.8,28.34,15.34,42.3s13.34,24,27.16,29.8c16.52,7,30.52,7.29,47,.14s39.48-18.26,57.31-16.43c14.42,1.48,33.5,1.43,42.68,12.64s16.4,24.32,19.81,38.4c4.06,16.75,3.85,43.57-2.38,59.64-6.71,17.31-24,32-38.65,43.4-16.64,12.93-39.35,17.94-57.79,20.06-50.43,5.8-104.07,2.21-153.1-11-28.25-7.58-56.37-29.72-75.5-51.84C88.8,295,73.15,269.7,66.4,242.08c-6.66-27.23-4.88-60,5.17-86.14" style="fill:#ebebeb"></path></g><g id="freepik--Plants--inject-6"><path d="M423.27,449.34c-13.66-8.7-17.4-25.77-17.54-41.25,0-2.58-.43-5.29.71-7.61s3.92-4,6.28-3c2,.82,2.89,3,4,4.81a15,15,0,0,0,6.3,5.53c1.68.78,3.73,1.21,5.32.25,2.17-1.33,2.3-4.41,2.17-7q-.35-7.17-.7-14.34a23.68,23.68,0,0,1,.45-7.66,8,8,0,0,1,4.77-5.6c2.41-.78,5.49.49,6.12,3a24.22,24.22,0,0,1,.21,3.2,2.69,2.69,0,0,0,1.68,2.47c1,.26,2-.52,2.77-1.3,2.54-2.7,4.19-6.12,5.73-9.51s3-6.86,5.31-9.79,5.51-5.31,9.18-5.68,7.68,1.74,8.76,5.31-.87,7.34-3,10.36a57.29,57.29,0,0,1-11.44,11.88,4.65,4.65,0,0,0-1.9,2.23c-.49,1.74,1.21,3.37,2.92,3.86,1.94.55,4,.27,6,.42s4.22.94,5.05,2.8c1.17,2.57-.91,5.42-3,7.31a49.24,49.24,0,0,1-14.17,9,16.56,16.56,0,0,0-5.28,2.85c-1.47,1.39-2.29,3.74-1.29,5.51s3.38,2.25,5.35,1.79,3.68-1.6,5.54-2.39c3.47-1.48,8-1.43,10.42,1.52a8.12,8.12,0,0,1,1.17,7.14,18.66,18.66,0,0,1-3.62,6.51,49.27,49.27,0,0,1-20.43,15.71c-8.06,3.19-15.61,4.28-23.87,1.66" style="fill:#FF725E"></path><path d="M423.56,460.81a112.62,112.62,0,0,1,3.29-21.33,230,230,0,0,1,8.06-25.15l2.46-6.49c.81-2.12,1.61-4.23,2.52-6.25a116.54,116.54,0,0,1,5.91-11.27c2.06-3.49,4.13-6.73,6.1-9.75s3.86-5.79,5.69-8.24a91.32,91.32,0,0,1,9.48-10.93c1.22-1.2,2.2-2.1,2.86-2.7.33-.28.58-.51.77-.68a3.46,3.46,0,0,1,.27-.22s-.07.1-.24.26l-.73.71c-.65.62-1.6,1.54-2.8,2.76a96.93,96.93,0,0,0-9.35,11c-1.8,2.46-3.67,5.24-5.63,8.26s-4,6.27-6,9.76a117,117,0,0,0-5.87,11.24c-.9,2-1.69,4.09-2.51,6.22s-1.62,4.3-2.45,6.49a238.24,238.24,0,0,0-8.08,25.08,114.34,114.34,0,0,0-3.38,21.25" style="fill:#263238"></path><path d="M440,401.57a5,5,0,0,1-.3-1.08c-.17-.71-.37-1.73-.61-3-.47-2.54-1-6.07-1.57-10s-1.16-7.41-1.67-9.93c-.25-1.26-.46-2.29-.62-3a5.4,5.4,0,0,1-.19-1.11,5.31,5.31,0,0,1,.37,1.07c.21.69.48,1.7.77,3,.59,2.51,1.23,6,1.8,9.93s1.06,7.32,1.44,10c.18,1.2.34,2.21.46,3A5.1,5.1,0,0,1,440,401.57Z" style="fill:#263238"></path><path d="M472.76,394a6.92,6.92,0,0,1-1.31.21c-.84.11-2.06.27-3.57.51-3,.45-7.14,1.23-11.66,2.28s-8.57,2.2-11.48,3.11c-1.46.44-2.63.83-3.44,1.1a7,7,0,0,1-1.27.37,7.83,7.83,0,0,1,1.21-.55c.79-.32,1.95-.76,3.4-1.24,2.89-1,6.94-2.19,11.47-3.25a118.81,118.81,0,0,1,11.73-2.16c1.51-.19,2.74-.3,3.59-.35A7.46,7.46,0,0,1,472.76,394Z" style="fill:#263238"></path><path d="M427.22,438.85a2.37,2.37,0,0,1-.24-.39l-.61-1.17c-.53-1-1.26-2.51-2.14-4.37-1.75-3.71-4-8.91-6.43-14.69s-4.63-11-6.3-14.74c-.82-1.82-1.5-3.31-2-4.43q-.31-.72-.54-1.2a1.55,1.55,0,0,1-.15-.44,2.37,2.37,0,0,1,.24.39c.17.32.37.71.62,1.17.52,1,1.25,2.51,2.13,4.37,1.75,3.71,4,8.92,6.43,14.69s4.63,11,6.3,14.74c.83,1.82,1.5,3.32,2,4.43.22.48.39.88.54,1.21A1.69,1.69,0,0,1,427.22,438.85Z" style="fill:#263238"></path><path d="M470.47,422.84a1.63,1.63,0,0,1-.43.2l-1.26.48-4.63,1.72c-3.9,1.46-9.28,3.53-15.22,5.83s-11.34,4.32-15.28,5.7c-2,.69-3.57,1.23-4.68,1.58l-1.29.4a1.52,1.52,0,0,1-.46.1,3.17,3.17,0,0,1,.43-.2l1.26-.48,4.63-1.72c3.91-1.45,9.28-3.53,15.22-5.83s11.34-4.32,15.28-5.69c2-.69,3.57-1.23,4.69-1.58L470,423A1.82,1.82,0,0,1,470.47,422.84Z" style="fill:#263238"></path><path d="M22,429.79a9,9,0,0,1,6.9,1.23,15.84,15.84,0,0,1,4.91,5.19c2.46,3.94,3.31,9.22,3.39,13.87-5.16-.24-9.54-4.32-11.63-6.53-3.31-3.49-7.18-11.81-3.57-13.76" style="fill:#FF725E"></path><path d="M45.43,453.24A7.64,7.64,0,0,1,42.85,446a10.09,10.09,0,0,1,4.4-6.48,4.25,4.25,0,0,1,3.49-.89,3.24,3.24,0,0,1,2.09,2.56,6.65,6.65,0,0,1-.41,3.41c-1.33,3.75-3.29,7.14-7,8.62" style="fill:#FF725E"></path><path d="M50.12,467.94s-.22-.28-.52-.83-.71-1.35-1.2-2.36a32.58,32.58,0,0,1-2.86-8.3,16.41,16.41,0,0,1,.7-8.73,10.49,10.49,0,0,1,1.26-2.36,3,3,0,0,1,.64-.74,22.26,22.26,0,0,0-1.56,3.22,17.27,17.27,0,0,0-.52,8.52,37.45,37.45,0,0,0,2.68,8.23A31.63,31.63,0,0,1,50.12,467.94Z" style="fill:#263238"></path><path d="M25.45,435.87A9,9,0,0,1,26.57,437c.69.77,1.68,1.89,2.88,3.3,2.41,2.81,5.67,6.75,9.17,11.19s6.56,8.54,8.73,11.54c1.09,1.5,1.95,2.73,2.54,3.58a10,10,0,0,1,.86,1.36,9.87,9.87,0,0,1-1-1.24l-2.66-3.48c-2.25-2.94-5.35-7-8.85-11.44s-6.71-8.4-9-11.27l-2.76-3.41A8.94,8.94,0,0,1,25.45,435.87Z" style="fill:#263238"></path><path d="M42,459a17.85,17.85,0,0,0-16-3.11c-1.38.41-2.91,1.26-3.05,2.69s1.21,2.56,2.5,3.2a15.28,15.28,0,0,0,16.76-2.44" style="fill:#FF725E"></path><path d="M29.35,458.48a3.36,3.36,0,0,1,.9-.26,6.17,6.17,0,0,1,1.08-.2,11.38,11.38,0,0,1,1.45-.15,18.74,18.74,0,0,1,3.79.16,22.44,22.44,0,0,1,4.49,1.2,22.2,22.2,0,0,1,4.09,2.2A18.69,18.69,0,0,1,48,463.9,12.08,12.08,0,0,1,49,465a8.08,8.08,0,0,1,.65.88,3,3,0,0,1,.47.81c-.08.06-.82-1.05-2.33-2.53a21.45,21.45,0,0,0-2.89-2.33,21.32,21.32,0,0,0-8.39-3.32,21.17,21.17,0,0,0-3.7-.27C30.67,458.28,29.37,458.58,29.35,458.48Z" style="fill:#263238"></path></g><g id="freepik--Arrow--inject-6"><polygon points="80.5 248.46 352.35 108.37 334.91 83.75 423.71 75.76 383.66 147.66 365.04 124.36 89.58 275.66 80.5 248.46" style="fill:#FF725E"></polygon></g><g id="freepik--Chart--inject-6"><rect x="65.04" y="348.01" width="62.62" height="120.62" style="fill:#263238"></rect><rect x="47.97" y="348.01" width="62.62" height="120.62" style="fill:#455a64"></rect><rect x="162.75" y="307.78" width="62.62" height="160.85" style="fill:#263238"></rect><rect x="143.83" y="307.78" width="62.62" height="160.85" style="fill:#455a64"></rect><rect x="263.26" y="256.82" width="62.62" height="211.81" style="fill:#263238"></rect><rect x="244.45" y="256.82" width="62.62" height="211.81" style="fill:#455a64"></rect><rect x="364.19" y="212.19" width="62.62" height="256.44" style="fill:#263238"></rect><rect x="339.25" y="212.19" width="62.62" height="256.44" style="fill:#455a64"></rect></g></svg>