<?xml version="1.0" encoding="utf-8"?>
<!-- Generator: Adobe Illustrator 27.5.0, SVG Export Plug-In . SVG Version: 6.00 Build 0)  -->
<svg version="1.1" id="Layer_1" xmlns="http://www.w3.org/2000/svg" xmlns:xlink="http://www.w3.org/1999/xlink" x="0px" y="0px"
	viewBox="0 0 4000 4000" style="enable-background:new 0 0 4000 4000;" xml:space="preserve">
<g>
	<g>
		<defs>
			<path id="SVGID_1_" d="M1454.45,1078.113c275.507,0,343.208,179.616,343.208,422.679v187.996
				c112.759-134.063,152.277-181.048,265.036-315.11c238.016-282.993,275.837-295.564,658.077-295.564l-648.546,747.958
				c205.135,276.145,410.272,552.29,615.407,828.435c-214.421,0-469.251-70.847-589.785-232.959l-300.19-403.752v636.711
				c-235.636,0-343.208-293.533-343.208-502.442C1454.45,1670.994,1454.45,1559.182,1454.45,1078.113"/>
		</defs>
		<clipPath id="SVGID_00000004527421156867679500000017501441064609051575_">
			<use xlink:href="#SVGID_1_"  style="overflow:visible;"/>
		</clipPath>

		<linearGradient id="SVGID_00000104677708179310617450000008724846749209126583_" gradientUnits="userSpaceOnUse" x1="1924.6062" y1="2539.0708" x2="2370.9553" y2="696.8701">
			<stop  offset="0" style="stop-color:#102770"/>
			<stop  offset="1" style="stop-color:#C514CB"/>
		</linearGradient>

		<rect x="1454.45" y="1078.113" style="clip-path:url(#SVGID_00000004527421156867679500000017501441064609051575_);fill:url(#SVGID_00000104677708179310617450000008724846749209126583_);" width="1266.321" height="1576.392"/>
	</g>
	<g>
		<defs>
			<path id="SVGID_00000137119283659060768000000009467210504953418417_" d="M1797.658,1688.787
				c0,0-253.075,211.694-343.208-133.213v462.219c47.527-373.674,343.208,0,343.208,0l300.19,403.752
				c120.534,162.111,375.364,232.959,589.785,232.959c-205.135-276.145-410.272-552.29-615.407-828.435l648.546-747.958
				c-382.24,0-420.061,12.571-658.077,295.564C1949.935,1507.739,1910.417,1554.725,1797.658,1688.787"/>
		</defs>
		<clipPath id="SVGID_00000120547872819715501170000012350709815328090778_">
			<use xlink:href="#SVGID_00000137119283659060768000000009467210504953418417_"  style="overflow:visible;"/>
		</clipPath>

		<linearGradient id="SVGID_00000039120225045946330100000007015361438603678119_" gradientUnits="userSpaceOnUse" x1="3024.4314" y1="1223.917" x2="1462.2059" y2="2295.1577">
			<stop  offset="0" style="stop-color:#FFCE4B"/>
			<stop  offset="1" style="stop-color:#C814B9"/>
		</linearGradient>

		<rect x="1454.45" y="1078.113" style="clip-path:url(#SVGID_00000120547872819715501170000012350709815328090778_);fill:url(#SVGID_00000039120225045946330100000007015361438603678119_);" width="1266.321" height="1576.392"/>
	</g>
	<defs>
		<filter id="Adobe_OpacityMaskFilter" filterUnits="userSpaceOnUse" x="1842.287" y="1078.113" width="878.484" height="557.614">
			<feColorMatrix  type="matrix" values="1 0 0 0 0  0 1 0 0 0  0 0 1 0 0  0 0 0 1 0"/>
		</filter>
	</defs>

	<mask maskUnits="userSpaceOnUse" x="1842.287" y="1078.113" width="878.484" height="557.614" id="SVGID_00000139989353846335004170000017803527510851306121_">
		<g style="filter:url(#Adobe_OpacityMaskFilter);">

				<linearGradient id="SVGID_00000029010350278070241040000002107994694193378196_" gradientUnits="userSpaceOnUse" x1="2442.8782" y1="1110.2395" x2="1858.5653" y2="2108.4426" gradientTransform="matrix(1 0 0 1 171.023 -321.1228)">
				<stop  offset="0" style="stop-color:#FFFFFF"/>
					<stop  offset="1" style="stop-color:#000000"/>
			</linearGradient>

			<rect x="1842.287" y="1078.113" style="fill:url(#SVGID_000000290103502780702410
02107994694193378196_);" width="878.485" height="557.614"/>
		</g>
	</mask>

	<defs>

			<filter id="Adobe_OpacityMaskFilter_00000009581166957034699570000009170526962654986927_" filterUnits="userSpaceOnUse" x="1454.45" y="1531.233" width="1233.182" height="1123.272">
			<feColorMatrix  type="matrix" values="1 0 0 0 0  0 1 0 0 0  0 0 1 0 0  0 0 0 1 0"/>
		</filter>
	</defs>

	<mask maskUnits="userSpaceOnUse" x="1454.45" y="1531.233" width="1233.182" height="1123.272" id="SVGID_00000160903211756599333340000001977331166247462561_">
		<g style="filter:url(#Adobe_OpacityMaskFilter_00000009581166957034699570000009170526962654986927_);">

				<linearGradient id="SVGID_00000091716187573168902200000013981061096964469923_" gradientUnits="userSpaceOnUse" x1="2164.1667" y1="3351.5977" x2="1839.5477" y2="1452.578" gradientTransform="matrix(1 0 0 1 99.3382 -132.8196)">
				<stop  offset="0" style="stop-color:#FFFFFF"/>
					<stop  offset="1" style="stop-color:#000000"/>
			</linearGradient>

		</g>
	</mask>
</g>
</svg>
